:SAMPLES-PER-SECOND 30
:FULLY-SPECIFIED
:DEGREES
74
root  3.96988 34.9541 -1.45237 -110.278 -84.8605 101.133
RightUpLeg  -32.3396 -2.92378 -8.89363
RightLeg  79.8778 -3.66703 -25.6
RightFoot  -8.997 -0.236992 8.50118
RightToes  -5.28226e-011 1.30204e-014 -6.03759e-014
Spine  18.1688 3.12109 -8.89081
Spine1  14.8593 1.54304 0.0295226
HEad  -27.1006 0.905902 -1.56042
LeftShoulder1  1.89379 -5.37512 -14.4471
LeftArm  23.9701 -4.29585 -55.1239
LeftForeArm  177.863 -79.5809 -128.805
LeftHand  0.387872 8.65311 14.4975
RightShoulder  1.6844 2.85379 20.1521
RightArm  6.85084 -10.719 55.96
RightForeArm  -160.515 74.0475 150.552
RightHand  -0.699944 -2.72418 -29.9955
LeftUpLeg  -14.3722 -0.456584 8.31625
LeftLeg  50.3838 -3.16409 -3.59782
LeftFoot  -24.3653 -1.98961 -18.5575
LeftToes  -2.42178e-010 -1.66495e-011 -2.88221e-011
75
root  3.72217 34.9324 -2.2634 -119.003 -84.7413 109.359
RightUpLeg  -32.0017 -3.41125 -13.7576
RightLeg  78.2417 -4.95202 -27.6986
RightFoot  -7.05183 -0.331387 7.59564
RightToes  -5.28226e-011 1.30204e-014 -6.03759e-014
Spine  18.164 3.35492 -8.59083
Spine1  13.85 1.82487 -0.0749478
HEad  -26.4605 1.0395 -2.62806
LeftShoulder1  1.53037 -4.81027 -11.2006
LeftArm  26.2849 -6.02439 -51.7927
LeftForeArm  -155.88 -69.8403 -157.569
LeftHand  0.566783 10.158 14.3483
RightShoulder  1.57055 2.68963 18.9223
RightArm  9.33916 -14.1997 53.3108
RightForeArm  -141.14 62.1901 165.424
RightHand  -0.81247 -2.25872 -29.5624
LeftUpLeg  -12.6768 1.34135 10.4704
LeftLeg  49.3176 -4.42615 -5.03152
LeftFoot  -23.8556 -2.07174 -20.0241
LeftToes  -2.42178e-010 -1.66495e-011 -2.88221e-011
76
root  3.37501 35.4162 -3.42292 -125.279 -85.7809 116.236
RightUpLeg  -30.5506 -4.33052 -17.985
RightLeg  73.1807 -8.08906 -28.7108
RightFoot  -3.45163 -0.351091 4.92705
RightToes  -5.28226e-011 1.30204e-014 -6.03759e-014
Spine  17.2773 2.95273 -7.31809
Spine1  12.5462 1.82302 -0.702083
HEad  -26.2875 1.2517 -3.45264
LeftShoulder1  1.06127 -3.36366 -7.89056
LeftArm  19.3891 -4.95856 -42.78
LeftForeArm  -152.169 -60.3067 -166.041
LeftHand  0.791667 11.3293 15.8521
RightShoulder  1.39913 2.24808 17.8039
RightArm  4.86735 -19.1005 45.6373
RightForeArm  -139.938 50.662 171.016
RightHand  -1.00327 -1.71421 -31.1891
LeftUpLeg  -10.4181 1.95647 13.8092
LeftLeg  44.4117 -5.15371 -4.95744
LeftFoot  -21.7081 -1.89114 -21.9946
LeftToes  -2.42178e-010 -1.66495e-011 -2.88221e-011
77
root  2.9956 36.3395 -4.98475 -101.827 -87.8617 94.0338
RightUpLeg  -27.1606 -5.48518 -20.8175
RightLeg  64.6462 -12.0945 -26.394
RightFoot  2.10594 -0.222831 1.987
RightToes  -5.28226e-011 1.30204e-014 -6.03759e-014
Spine  16.5268 2.08307 -6.10315
Spine1  10.0664 1.15672 -0.625111
HEad  -25.5348 1.6077 -3.54683
LeftShoulder1  0.611185 -1.49141 -4.26758
LeftArm  6.68438 -1.26616 -30.1676
LeftForeArm  -157.794 -57.9646 -166.954
LeftHand  1.02526 13.6605 14.8906
RightShoulder  1.18169 1.5368 16.8511
RightArm  -6.6788 -24.1471 31.9713
RightForeArm  -151.398 45.5415 172.075
RightHand  -0.663134 -3.04713 -32.3989
LeftUpLeg  -7.63219 0.681663 17.9315
LeftLeg  35.613 -6.02291 -4.32299
LeftFoot  -16.4314 -0.966043 -23.5869
LeftToes  -2.42178e-010 -1.66495e-011 -2.88221e-011
78
root  2.6263 37.4699 -6.85743 -15.5271 -88.4351 9.03745
RightUpLeg  -21.8432 -6.16497 -22.6614
RightLeg  53.1168 -15.649 -21.4377
RightFoot  8.96583 -0.374446 2.31722
RightToes  -5.28226e-011 1.30204e-014 -6.03759e-014
Spine  16.6674 1.07691 -5.94281
Spine1  5.8329 -0.093364 0.668274
HEad  -23.3546 2.42543 -3.0448
LeftShoulder1  0.309178 -0.23476 0.17027
LeftArm  -4.6895 4.55026 -18.2328
LeftForeArm  -171.766 -66.131 -159.478
LeftHand  0.995745 16.1006 11.2296
RightShoulder  1.01474 1.10106 15.3279
RightArm  -16.6967 -29.2032 15.022
RightForeArm  -164.574 51.1069 169.462
RightHand  0.12862 -5.94027 -30.195
LeftUpLeg  -4.52678 0.176503 21.9145
LeftLeg  23.9248 -7.20242 -2.55363
LeftFoot  -6.20519 1.31112 -26.6746
LeftToes  -2.42178e-010 -1.66495e-011 -2.88221e-011
79
root  2.2406 38.5151 -8.84181 14.377 -85.8206 -19.3068
RightUpLeg  -16.0633 -6.48392 -24.0221
RightLeg  40.1298 -18.1834 -15.9706
RightFoot  16.5945 -1.11604 4.95585
RightToes  -5.28226e-011 1.30204e-014 -6.03759e-014
Spine  16.1768 -0.0422039 -6.04098
Spine1  1.59047 -1.33952 1.73607
HEad  -20.116 3.42274 -2.40271
LeftShoulder1  0.14965 -0.243134 4.9335
LeftArm  -11.0382 7.21496 -10.0962
LeftForeArm  125.015 -79.1712 -98.7761
LeftHand  0.664979 15.1755 8.52292
RightShoulder  0.908072 1.20006 12.3292
RightArm  -19.2381 -30.4783 1.74815
RightForeArm  179.75 66.1877 157.658
RightHand  0.409426 -7.39289 -23.5482
LeftUpLeg  -2.03815 8.00949 24.8871
LeftLeg  11.5938 -8.54469 1.19448
LeftFoot  8.69668 5.43898 -30.5637
LeftToes  -2.42178e-010 -1.66495e-011 -2.88221e-011
80
root  1.85566 39.2835 -10.7753 17.0975 -83.8788 -19.903
RightUpLeg  -11.4627 -6.43669 -24.8258
RightLeg  27.655 -17.7024 -10.0758
RightFoot  24.7269 -1.78793 6.05805
RightToes  -5.28226e-011 1.30204e-014 -6.03759e-014
Spine  13.2144 -1.24775 -5.05485
Spine1  -0.267165 -2.15533 1.32795
HEad  -16.348 4.1854 -2.0857
LeftShoulder1  0.0807717 -1.85698 7.95924
LeftArm  -10.7957 1.83598 -4.85798
LeftForeArm  37.3437 -54.3771 -10.9422
LeftHand  0.538217 12.0658 9.97581
RightShoulder  0.738667 1.30559 7.83477
RightArm  -18.8367 -24.3017 -4.65054
RightForeArm  100.462 79.2018 82.643
RightHand  0.126273 -6.27563 -17.2882
LeftUpLeg  -0.948697 18.3415 26.9437
LeftLeg  2.01603 -4.32002 2.84905
LeftFoot  22.8487 9.10383 -29.6347
LeftToes  -2.42178e-010 -1.66495e-011 -2.88221e-011
81
root  1.56907 39.6832 -12.6656 19.025 -82.9165 -20.0509
RightUpLeg  -8.49685 -5.19196 -24.8527
RightLeg  18.5871 -11.5698 -4.55899
RightFoot  31.0016 -2.37782 6.68181
RightToes  -5.28226e-011 1.30204e-014 -6.03759e-014
Spine  9.25756 -2.12521 -3.99635
Spine1  0.247523 -2.62601 0.513241
HEad  -12.401 5.16904 -2.27522
LeftShoulder1  0.121513 -4.67118 8.01331
LeftArm  -8.48989 -7.9673 0.614217
LeftForeArm  27.5694 -18.0973 -3.94455
LeftHand  0.498115 12.5203 9.3155
RightShoulder  0.47258 0.781902 2.88398
RightArm  -16.2862 -11.533 -5.3048
RightForeArm  23.1607 52.6923 11.2107
RightHand  -0.0984474 -4.71026 -13.6845
LeftUpLeg  -1.04242 19.0463 27.5065
LeftLeg  -0.422344 1.46385 1.59201
LeftFoot  26.6428 9.25333 -26.9376
LeftToes  -2.42178e-010 -1.66495e-011 -2.88221e-011
82
root  1.42959 39.7264 -14.6416 20.386 -83.0578 -21.2334
RightUpLeg  -6.5855 -3.63336 -23.7245
RightLeg  15.1576 -3.49799 -1.48899
RightFoot  31.1428 -3.60823 9.88584
RightToes  -5.28226e-011 1.30204e-014 -6.03759e-014
Spine  7.76604 -2.4618 -4.72997
Spine1  0.842982 -3.02889 1.07729
HEad  -9.45798 6.84607 -2.66581
LeftShoulder1  0.183409 -6.7844 7.57673
LeftArm  -21.2392 -13.5043 5.52776
LeftForeArm  37.7233 4.46356 -9.38188
LeftHand  -0.0163871 14.6615 0.644065
RightShoulder  0.255108 -0.04174 -1.20012
RightArm  -12.9945 1.98428 -3.39268
RightForeArm  15.6102 22.4471 5.21295
RightHand  -0.0478086 -5.14484 -9.87661
LeftUpLeg  -0.700507 17.347 26.5279
LeftLeg  2.97639 -4.10309 2.29997
LeftFoot  19.6316 8.13722 -29.3612
LeftToes  -2.42178e-010 -1.66495e-011 -2.88221e-011
83
root  1.39877 39.3675 -16.5996 27.4262 -83.9937 -29.1824
RightUpLeg  -5.83381 -3.86749 -21.4077
RightLeg  16.7711 -0.700672 -0.643512
RightFoot  24.1073 -4.70214 15.2895
RightToes  -5.28226e-011 1.30204e-014 -6.03759e-014
Spine  9.12146 -2.22684 -5.78929
Spine1  0.12198 -3.10014 2.99345
HEad  -8.88388 8.22122 -2.82433
LeftShoulder1  0.00955768 -6.57551 9.64183
LeftArm  -17.0089 -12.4096 3.1503
LeftForeArm  34.7805 6.93549 -10.0656
LeftHand  -0.468409 13.4529 -5.64871
RightShoulder  0.178944 -0.210856 -3.42668
RightArm  -15.8452 6.98323 -1.13166
RightForeArm  26.9088 11.8256 8.09838
RightHand  -0.00785999 -5.59855 -5.34317
LeftUpLeg  0.0628333 10.4964 25.2984
LeftLeg  10.3843 -2.80602 2.98713
LeftFoot  9.17013 5.74939 -31.2002
LeftToes  -2.42178e-010 -1.66495e-011 -2.88221e-011
